# xmcd CD database file
#
# Track frame offsets:
#	150
#	20393
#	40120
#	59408
#	90810
#	109368
#	129223
#	160180
#	176245
#
# Disc length: 2576 seconds
#
# Revision: 2
# Processed by: cddbd v1.4PL0 Copyright (c) Steve Scherf et al.
# Submitted via: CDex 1.51
#
DISCID=690a0e09
DTITLE=Albert Collins - Cold Snap
DYEAR=1986
DGENRE=Blues
TTITLE0=Cash Talkin' (The Workingman's Blues)
TTITLE1=Bending Like A Willow Tree
TTITLE2=A Good Fool Is Hard To Find
TTITLE3=Lights Are On But Nobody's Home
TTITLE4=I Ain't Drunk
TTITLE5=Hooked On You
TTITLE6=Too Many Dirty Dishes
TTITLE7=Snatchin' It Back
TTITLE8=Fake I.D.
EXTD=YEAR: 1986
EXTT0=
EXTT1=
EXTT2=
EXTT3=
EXTT4=
EXTT5=
EXTT6=
EXTT7=
EXTT8=
PLAYORDER=
